<svg xmlns="http://www.w3.org/2000/svg" viewBox="0 0 1200 700" fill="none">
  <g stroke="#a9d9ff" stroke-opacity=".22" stroke-width="1">
    <path d="M54 128 176 78l98 92 126-41 83 87 139-63 102 96 156-71 115 86 143-38"/>
    <path d="m126 524 116-75 102 44 126-92 129 64 92-103 150 55 104-83 137 57"/>
  </g>
  <g fill="#d9efff">
    <circle cx="54" cy="128" r="2.5"/><circle cx="176" cy="78" r="3"/>
    <circle cx="274" cy="170" r="2"/><circle cx="400" cy="129" r="3.5"/>
    <circle cx="483" cy="216" r="2"/><circle cx="622" cy="153" r="3"/>
    <circle cx="724" cy="249" r="2.5"/><circle cx="880" cy="178" r="3"/>
    <circle cx="995" cy="264" r="2"/><circle cx="1138" cy="226" r="3"/>
    <circle cx="126" cy="524" r="2"/><circle cx="242" cy="449" r="3"/>
    <circle cx="344" cy="493" r="2"/><circle cx="470" cy="401" r="3"/>
    <circle cx="599" cy="465" r="2.5"/><circle cx="691" cy="362" r="3"/>
    <circle cx="841" cy="417" r="2"/><circle cx="945" cy="334" r="3"/>
    <circle cx="1082" cy="391" r="2.5"/>
  </g>
</svg>
